<svg width="667" height="637" viewBox="0 0 667 637" fill="none" xmlns="http://www.w3.org/2000/svg">
<g filter="url(#filter0_d_2_8)">
<rect x="165.499" y="101.5" width="345" height="434" rx="12.5" fill="#A8D9D6" stroke="black"/>
<path d="M650.402 303.156C656.78 312.391 656.78 324.609 650.402 333.844L519.716 523.067C504.665 544.861 470.499 534.209 470.499 507.724L470.499 129.276C470.499 102.791 504.664 92.1393 519.716 113.932L650.402 303.156Z" fill="#A8D9D6"/>
</g>
<g filter="url(#filter1_d_2_8)">
<rect x="96.4996" y="101.5" width="345" height="434" rx="12.5" fill="#A8D9D6" stroke="black"/>
<path d="M581.403 303.156C587.781 312.391 587.781 324.609 581.403 333.844L450.716 523.067C435.665 544.861 401.5 534.209 401.5 507.724L401.5 129.276C401.5 102.791 435.665 92.1393 450.716 113.932L581.403 303.156Z" fill="#A8D9D6"/>
</g>
<g filter="url(#filter2_d_2_8)">
<rect x="15.4995" y="101.5" width="345" height="434" rx="12.5" fill="#A8D9D6" stroke="black"/>
<path d="M500.402 303.156C506.78 312.391 506.781 324.609 500.402 333.844L369.716 523.067C354.665 544.861 320.5 534.209 320.5 507.724L320.5 129.276C320.5 102.791 354.665 92.1393 369.716 113.932L500.402 303.156Z" fill="#A8D9D6"/>
</g>
<g filter="url(#filter3_i_2_8)">
<path d="M402.4 294.723C420.158 305.161 420.158 330.839 402.4 341.277L151.182 488.943C133.183 499.523 110.5 486.545 110.5 465.666L110.5 170.334C110.5 149.455 133.183 136.477 151.182 147.057L402.4 294.723Z" fill="#90C8C4"/>
</g>
<defs>
<filter id="filter0_d_2_8" x="164.999" y="100" width="501.186" height="443" filterUnits="userSpaceOnUse" color-interpolation-filters="sRGB">
<feFlood flood-opacity="0" result="BackgroundImageFix"/>
<feColorMatrix in="SourceAlpha" type="matrix" values="0 0 0 0 0 0 0 0 0 0 0 0 0 0 0 0 0 0 127 0" result="hardAlpha"/>
<feOffset dx="7" dy="3"/>
<feGaussianBlur stdDeviation="2"/>
<feComposite in2="hardAlpha" operator="out"/>
<feColorMatrix type="matrix" values="0 0 0 0 0 0 0 0 0 0 0 0 0 0 0 0 0 0 0.25 0"/>
<feBlend mode="normal" in2="BackgroundImageFix" result="effect1_dropShadow_2_8"/>
<feBlend mode="normal" in="SourceGraphic" in2="effect1_dropShadow_2_8" result="shape"/>
</filter>
<filter id="filter1_d_2_8" x="95.9996" y="100" width="501.186" height="443" filterUnits="userSpaceOnUse" color-interpolation-filters="sRGB">
<feFlood flood-opacity="0" result="BackgroundImageFix"/>
<feColorMatrix in="SourceAlpha" type="matrix" values="0 0 0 0 0 0 0 0 0 0 0 0 0 0 0 0 0 0 127 0" result="hardAlpha"/>
<feOffset dx="7" dy="3"/>
<feGaussianBlur stdDeviation="2"/>
<feComposite in2="hardAlpha" operator="out"/>
<feColorMatrix type="matrix" values="0 0 0 0 0 0 0 0 0 0 0 0 0 0 0 0 0 0 0.25 0"/>
<feBlend mode="normal" in2="BackgroundImageFix" result="effect1_dropShadow_2_8"/>
<feBlend mode="normal" in="SourceGraphic" in2="effect1_dropShadow_2_8" result="shape"/>
</filter>
<filter id="filter2_d_2_8" x="14.9995" y="100" width="501.186" height="443" filterUnits="userSpaceOnUse" color-interpolation-filters="sRGB">
<feFlood flood-opacity="0" result="BackgroundImageFix"/>
<feColorMatrix in="SourceAlpha" type="matrix" values="0 0 0 0 0 0 0 0 0 0 0 0 0 0 0 0 0 0 127 0" result="hardAlpha"/>
<feOffset dx="7" dy="3"/>
<feGaussianBlur stdDeviation="2"/>
<feComposite in2="hardAlpha" operator="out"/>
<feColorMatrix type="matrix" values="0 0 0 0 0 0 0 0 0 0 0 0 0 0 0 0 0 0 0.25 0"/>
<feBlend mode="normal" in2="BackgroundImageFix" result="effect1_dropShadow_2_8"/>
<feBlend mode="normal" in="SourceGraphic" in2="effect1_dropShadow_2_8" result="shape"/>
</filter>
<filter id="filter3_i_2_8" x="109.5" y="143.293" width="306.218" height="357.414" filterUnits="userSpaceOnUse" color-interpolation-filters="sRGB">
<feFlood flood-opacity="0" result="BackgroundImageFix"/>
<feBlend mode="normal" in="SourceGraphic" in2="BackgroundImageFix" result="shape"/>
<feColorMatrix in="SourceAlpha" type="matrix" values="0 0 0 0 0 0 0 0 0 0 0 0 0 0 0 0 0 0 127 0" result="hardAlpha"/>
<feOffset dx="-1" dy="8"/>
<feGaussianBlur stdDeviation="5.5"/>
<feComposite in2="hardAlpha" operator="arithmetic" k2="-1" k3="1"/>
<feColorMatrix type="matrix" values="0 0 0 0 0 0 0 0 0 0 0 0 0 0 0 0 0 0 0.25 0"/>
<feBlend mode="normal" in2="shape" result="effect1_innerShadow_2_8"/>
</filter>
</defs>
</svg>
